<mxfile host="app.diagrams.net" modified="2023-10-04T00:42:24.302Z" agent="Mozilla/5.0 (Windows NT 10.0; Win64; x64) AppleWebKit/537.36 (KHTML, like Gecko) Chrome/117.0.0.0 Safari/537.36 Edg/117.0.2045.47" etag="uW262IlNJ4e80Q03v7Se" version="22.0.2" type="github">
  <diagram name="Página-1" id="Rf24OLrSXDJ2i-pFYp6c">
    <mxGraphModel dx="1379" dy="796" grid="1" gridSize="10" guides="1" tooltips="1" connect="1" arrows="1" fold="1" page="1" pageScale="1" pageWidth="827" pageHeight="1169" math="0" shadow="0">
      <root>
        <mxCell id="0" />
        <mxCell id="1" parent="0" />
        <mxCell id="QQlGUYkuRzY7jZ27fVHq-3" value="" style="rounded=0;whiteSpace=wrap;html=1;fillColor=#fff2cc;strokeColor=#d6b656;" vertex="1" parent="1">
          <mxGeometry x="234" y="40" width="359" height="500" as="geometry" />
        </mxCell>
        <mxCell id="QQlGUYkuRzY7jZ27fVHq-5" value="" style="rounded=0;whiteSpace=wrap;html=1;fillColor=#dae8fc;strokeColor=#6c8ebf;" vertex="1" parent="1">
          <mxGeometry x="234" y="40" width="360" height="10" as="geometry" />
        </mxCell>
        <mxCell id="QQlGUYkuRzY7jZ27fVHq-7" value="Contato" style="text;html=1;strokeColor=none;fillColor=none;align=center;verticalAlign=middle;whiteSpace=wrap;rounded=0;" vertex="1" parent="1">
          <mxGeometry x="510" y="40" width="40" height="10" as="geometry" />
        </mxCell>
        <mxCell id="QQlGUYkuRzY7jZ27fVHq-8" value="Projetos" style="text;html=1;strokeColor=none;fillColor=none;align=center;verticalAlign=middle;whiteSpace=wrap;rounded=0;" vertex="1" parent="1">
          <mxGeometry x="394" y="40" width="40" height="10" as="geometry" />
        </mxCell>
        <mxCell id="QQlGUYkuRzY7jZ27fVHq-9" value="Home" style="text;html=1;strokeColor=none;fillColor=none;align=center;verticalAlign=middle;whiteSpace=wrap;rounded=0;" vertex="1" parent="1">
          <mxGeometry x="305.25" y="40" width="40" height="10" as="geometry" />
        </mxCell>
        <mxCell id="QQlGUYkuRzY7jZ27fVHq-11" value="&lt;font style=&quot;font-size: 17px;&quot;&gt;oi,eu sou André&lt;br&gt;Um web/mobile Developer&lt;/font&gt;" style="text;html=1;strokeColor=none;fillColor=none;align=center;verticalAlign=middle;whiteSpace=wrap;rounded=0;" vertex="1" parent="1">
          <mxGeometry x="308" y="65" width="211" height="80" as="geometry" />
        </mxCell>
        <mxCell id="QQlGUYkuRzY7jZ27fVHq-12" value="&lt;div style=&quot;text-align: justify; color: rgb(204, 204, 204); background-color: rgb(31, 31, 31); font-family: Consolas, &amp;quot;Courier New&amp;quot;, monospace; line-height: 19px; font-size: 5px;&quot;&gt;&lt;br&gt;&lt;/div&gt;" style="text;html=1;strokeColor=none;fillColor=none;align=center;verticalAlign=middle;whiteSpace=wrap;rounded=0;" vertex="1" parent="1">
          <mxGeometry x="256.5" y="100" width="137.5" height="10" as="geometry" />
        </mxCell>
        <mxCell id="QQlGUYkuRzY7jZ27fVHq-13" value="&lt;h1&gt;&lt;span style=&quot;background-color: initial; font-size: 12px; font-weight: normal;&quot;&gt;Lorem ipsum dolor sit amet, consectetur adipisicing elit, sed do eiusmod tempor incididunt ut labore et dolore magna aliqua.&lt;/span&gt;&lt;br&gt;&lt;/h1&gt;" style="text;html=1;strokeColor=none;fillColor=none;spacing=5;spacingTop=-20;whiteSpace=wrap;overflow=hidden;rounded=0;" vertex="1" parent="1">
          <mxGeometry x="258" y="160" width="310" height="110" as="geometry" />
        </mxCell>
        <mxCell id="QQlGUYkuRzY7jZ27fVHq-15" value="" style="rounded=1;whiteSpace=wrap;html=1;" vertex="1" parent="1">
          <mxGeometry x="255.5" y="310" width="313.5" height="170" as="geometry" />
        </mxCell>
        <mxCell id="QQlGUYkuRzY7jZ27fVHq-16" value="&lt;font style=&quot;font-size: 17px;&quot;&gt;Projetos&lt;/font&gt;" style="text;html=1;strokeColor=none;fillColor=none;align=center;verticalAlign=middle;whiteSpace=wrap;rounded=0;" vertex="1" parent="1">
          <mxGeometry x="256.5" y="275" width="73.5" height="25" as="geometry" />
        </mxCell>
        <mxCell id="QQlGUYkuRzY7jZ27fVHq-17" value="" style="rounded=0;whiteSpace=wrap;html=1;" vertex="1" parent="1">
          <mxGeometry x="40" y="600" width="760" height="520" as="geometry" />
        </mxCell>
        <mxCell id="QQlGUYkuRzY7jZ27fVHq-18" value="" style="rounded=0;whiteSpace=wrap;html=1;" vertex="1" parent="1">
          <mxGeometry x="60" y="630" width="120" height="60" as="geometry" />
        </mxCell>
      </root>
    </mxGraphModel>
  </diagram>
</mxfile>
